<svg width="399" height="177" viewBox="0 0 399 177" fill="none" xmlns="http://www.w3.org/2000/svg">
<g filter="url(#filter0_d_48_3)">
<path d="M152.829 144.001L317 144.001" stroke="black" stroke-width="3"/>
</g>
<g filter="url(#filter1_d_48_3)">
<path d="M4 144H156.67" stroke="#E2C799" stroke-width="3"/>
</g>
<g filter="url(#filter2_d_48_3)">
<path d="M45.1701 69.5L96.6701 48.5L148.17 27.5M157.17 0V25M157.17 168.5V25M51.1701 67.0821V108.5H148.17M157.17 25L264.67 69.5M258.67 111V67.0163" stroke="black" stroke-width="3.5"/>
</g>
<rect x="43.5" y="67.147" width="112.361" height="6.0333" transform="rotate(-22.2967 43.5 67.147)" fill="#E2C799"/>
<path d="M5.394 138V123.3H10.896C12.142 123.3 13.213 123.503 14.109 123.909C15.005 124.301 15.691 124.875 16.167 125.631C16.657 126.373 16.902 127.276 16.902 128.34C16.902 129.376 16.657 130.272 16.167 131.028C15.691 131.77 15.005 132.344 14.109 132.75C13.213 133.142 12.142 133.338 10.896 133.338H6.255L6.948 132.624V138H5.394ZM15.432 138L11.652 132.666H13.332L17.133 138H15.432ZM6.948 132.75L6.255 132.015H10.854C12.324 132.015 13.437 131.693 14.193 131.049C14.963 130.405 15.348 129.502 15.348 128.34C15.348 127.164 14.963 126.254 14.193 125.61C13.437 124.966 12.324 124.644 10.854 124.644H6.255L6.948 123.909V132.75ZM28.7178 138L35.4378 123.3H36.9708L43.6908 138H42.0528L35.8788 124.203H36.5088L30.3348 138H28.7178ZM31.3638 134.073L31.8258 132.813H40.3728L40.8348 134.073H31.3638ZM62.8434 138.126C61.7374 138.126 60.7084 137.944 59.7564 137.58C58.8184 137.202 57.9994 136.677 57.2994 136.005C56.6134 135.319 56.0744 134.528 55.6824 133.632C55.3044 132.722 55.1154 131.728 55.1154 130.65C55.1154 129.572 55.3044 128.585 55.6824 127.689C56.0744 126.779 56.6134 125.988 57.2994 125.316C57.9994 124.63 58.8184 124.105 59.7564 123.741C60.6944 123.363 61.7234 123.174 62.8434 123.174C63.9494 123.174 64.9714 123.363 65.9094 123.741C66.8474 124.105 67.6594 124.623 68.3454 125.295C69.0454 125.967 69.5844 126.758 69.9624 127.668C70.3544 128.578 70.5504 129.572 70.5504 130.65C70.5504 131.728 70.3544 132.722 69.9624 133.632C69.5844 134.542 69.0454 135.333 68.3454 136.005C67.6594 136.677 66.8474 137.202 65.9094 137.58C64.9714 137.944 63.9494 138.126 62.8434 138.126ZM62.8434 136.74C63.7254 136.74 64.5374 136.593 65.2794 136.299C66.0354 135.991 66.6864 135.564 67.2324 135.018C67.7924 134.458 68.2264 133.814 68.5344 133.086C68.8424 132.344 68.9964 131.532 68.9964 130.65C68.9964 129.768 68.8424 128.963 68.5344 128.235C68.2264 127.493 67.7924 126.849 67.2324 126.303C66.6864 125.743 66.0354 125.316 65.2794 125.022C64.5374 124.714 63.7254 124.56 62.8434 124.56C61.9614 124.56 61.1424 124.714 60.3864 125.022C59.6304 125.316 58.9724 125.743 58.4124 126.303C57.8664 126.849 57.4324 127.493 57.1104 128.235C56.8024 128.963 56.6484 129.768 56.6484 130.65C56.6484 131.518 56.8024 132.323 57.1104 133.065C57.4324 133.807 57.8664 134.458 58.4124 135.018C58.9724 135.564 59.6304 135.991 60.3864 136.299C61.1424 136.593 61.9614 136.74 62.8434 136.74ZM84.5336 138V123.3H86.0876V136.656H94.3196V138H84.5336ZM108.786 129.873H116.556V131.196H108.786V129.873ZM108.954 136.656H117.795V138H107.4V123.3H117.48V124.644H108.954V136.656ZM131.948 138V123.3H133.229L143.372 136.068H142.7V123.3H144.233V138H142.952L132.83 125.232H133.502V138H131.948Z" fill="black"/>
<path d="M5.394 138H4.894V138.5H5.394V138ZM5.394 123.3V122.8H4.894V123.3H5.394ZM14.109 123.909L13.9026 124.364L13.9086 124.367L14.109 123.909ZM16.167 125.631L15.7438 125.897L15.7498 125.907L16.167 125.631ZM16.167 131.028L15.7474 130.756L15.7462 130.758L16.167 131.028ZM14.109 132.75L14.3094 133.208L14.3154 133.205L14.109 132.75ZM6.255 133.338L5.89621 132.99L5.07292 133.838H6.255V133.338ZM6.948 132.624H7.448V131.391L6.58921 132.276L6.948 132.624ZM6.948 138V138.5H7.448V138H6.948ZM15.432 138L15.0241 138.289L15.1735 138.5H15.432V138ZM11.652 132.666V132.166H10.6848L11.2441 132.955L11.652 132.666ZM13.332 132.666L13.7392 132.376L13.5897 132.166H13.332V132.666ZM17.133 138V138.5H18.1033L17.5402 137.71L17.133 138ZM6.948 132.75L6.58421 133.093L7.448 134.009V132.75H6.948ZM6.255 132.015V131.515H5.09637L5.89121 132.358L6.255 132.015ZM14.193 131.049L13.8722 130.665L13.8688 130.668L14.193 131.049ZM14.193 125.61L13.8688 125.991L13.8722 125.994L14.193 125.61ZM6.255 124.644L5.89121 124.301L5.09637 125.144H6.255V124.644ZM6.948 123.909H7.448V122.65L6.58421 123.566L6.948 123.909ZM5.894 138V123.3H4.894V138H5.894ZM5.394 123.8H10.896V122.8H5.394V123.8ZM10.896 123.8C12.0892 123.8 13.0863 123.995 13.9026 124.364L14.3154 123.454C13.3397 123.011 12.1948 122.8 10.896 122.8V123.8ZM13.9086 124.367C14.7219 124.723 15.3263 125.234 15.7439 125.897L16.5901 125.365C16.0557 124.516 15.2881 123.879 14.3094 123.451L13.9086 124.367ZM15.7498 125.907C16.1759 126.552 16.402 127.354 16.402 128.34H17.402C17.402 127.198 17.1381 126.194 16.5842 125.355L15.7498 125.907ZM16.402 128.34C16.402 129.294 16.1774 130.093 15.7474 130.756L16.5866 131.3C17.1366 130.451 17.402 129.458 17.402 128.34H16.402ZM15.7462 130.758C15.3282 131.41 14.7213 131.924 13.9026 132.295L14.3154 133.205C15.2887 132.764 16.0538 132.13 16.5878 131.298L15.7462 130.758ZM13.9086 132.292C13.0906 132.65 12.0912 132.838 10.896 132.838V133.838C12.1928 133.838 13.3354 133.634 14.3094 133.208L13.9086 132.292ZM10.896 132.838H6.255V133.838H10.896V132.838ZM6.61379 133.686L7.30679 132.972L6.58921 132.276L5.89621 132.99L6.61379 133.686ZM6.448 132.624V138H7.448V132.624H6.448ZM6.948 137.5H5.394V138.5H6.948V137.5ZM15.8399 137.711L12.0599 132.377L11.2441 132.955L15.0241 138.289L15.8399 137.711ZM11.652 133.166H13.332V132.166H11.652V133.166ZM12.9248 132.956L16.7258 138.29L17.5402 137.71L13.7392 132.376L12.9248 132.956ZM17.133 137.5H15.432V138.5H17.133V137.5ZM7.31179 132.407L6.61879 131.672L5.89121 132.358L6.58421 133.093L7.31179 132.407ZM6.255 132.515H10.854V131.515H6.255V132.515ZM10.854 132.515C12.3874 132.515 13.636 132.18 14.5172 131.43L13.8688 130.668C13.238 131.206 12.2606 131.515 10.854 131.515V132.515ZM14.5138 131.433C15.4159 130.678 15.848 129.624 15.848 128.34H14.848C14.848 129.38 14.5101 130.132 13.8722 130.665L14.5138 131.433ZM15.848 128.34C15.848 127.044 15.4174 125.982 14.5138 125.226L13.8722 125.994C14.5086 126.526 14.848 127.284 14.848 128.34H15.848ZM14.5172 125.229C13.636 124.479 12.3874 124.144 10.854 124.144V125.144C12.2606 125.144 13.238 125.453 13.8688 125.991L14.5172 125.229ZM10.854 124.144H6.255V125.144H10.854V124.144ZM6.61879 124.987L7.31179 124.252L6.58421 123.566L5.89121 124.301L6.61879 124.987ZM6.448 123.909V132.75H7.448V123.909H6.448ZM28.7178 138L28.263 137.792L27.9394 138.5H28.7178V138ZM35.4378 123.3V122.8H35.1166L34.983 123.092L35.4378 123.3ZM36.9708 123.3L37.4255 123.092L37.292 122.8H36.9708V123.3ZM43.6908 138V138.5H44.4691L44.1455 137.792L43.6908 138ZM42.0528 138L41.5964 138.204L41.7287 138.5H42.0528V138ZM35.8788 124.203V123.703H35.1073L35.4224 124.407L35.8788 124.203ZM36.5088 124.203L36.9652 124.407L37.2803 123.703H36.5088V124.203ZM30.3348 138V138.5H30.6588L30.7912 138.204L30.3348 138ZM31.3638 134.073L30.8943 133.901L30.6479 134.573H31.3638V134.073ZM31.8258 132.813V132.313H31.4766L31.3563 132.641L31.8258 132.813ZM40.3728 132.813L40.8422 132.641L40.722 132.313H40.3728V132.813ZM40.8348 134.073V134.573H41.5507L41.3042 133.901L40.8348 134.073ZM29.1725 138.208L35.8925 123.508L34.983 123.092L28.263 137.792L29.1725 138.208ZM35.4378 123.8H36.9708V122.8H35.4378V123.8ZM36.516 123.508L43.236 138.208L44.1455 137.792L37.4255 123.092L36.516 123.508ZM43.6908 137.5H42.0528V138.5H43.6908V137.5ZM42.5092 137.796L36.3352 123.999L35.4224 124.407L41.5964 138.204L42.5092 137.796ZM35.8788 124.703H36.5088V123.703H35.8788V124.703ZM36.0524 123.999L29.8784 137.796L30.7912 138.204L36.9652 124.407L36.0524 123.999ZM30.3348 137.5H28.7178V138.5H30.3348V137.5ZM31.8332 134.245L32.2952 132.985L31.3563 132.641L30.8943 133.901L31.8332 134.245ZM31.8258 133.313H40.3728V132.313H31.8258V133.313ZM39.9033 132.985L40.3653 134.245L41.3042 133.901L40.8422 132.641L39.9033 132.985ZM40.8348 133.573H31.3638V134.573H40.8348V133.573ZM59.7564 137.58L59.5695 138.044L59.5779 138.047L59.7564 137.58ZM57.2994 136.005L56.9458 136.359L56.9532 136.366L57.2994 136.005ZM55.6824 133.632L55.2206 133.824L55.2244 133.832L55.6824 133.632ZM55.6824 127.689L55.2232 127.491L55.2218 127.495L55.6824 127.689ZM57.2994 125.316L57.6493 125.673L57.6494 125.673L57.2994 125.316ZM59.7564 123.741L59.9373 124.207L59.9433 124.205L59.7564 123.741ZM65.9094 123.741L65.7225 124.205L65.7285 124.207L65.9094 123.741ZM68.3454 125.295L67.9955 125.652L67.9992 125.656L68.3454 125.295ZM69.9624 127.668L69.5006 127.86L69.5032 127.866L69.9624 127.668ZM69.9624 133.632L69.5032 133.434L69.5007 133.44L69.9624 133.632ZM68.3454 136.005L67.9992 135.644L67.9956 135.648L68.3454 136.005ZM65.9094 137.58L66.0903 138.046L66.0963 138.044L65.9094 137.58ZM65.2794 136.299L65.4636 136.764L65.4681 136.762L65.2794 136.299ZM67.2324 135.018L66.8789 134.664L67.2324 135.018ZM68.5344 133.086L68.9949 133.281L68.9962 133.278L68.5344 133.086ZM68.5344 128.235L68.0726 128.427L68.074 128.43L68.5344 128.235ZM67.2324 126.303L66.8743 126.652L66.8834 126.661L67.2324 126.303ZM65.2794 125.022L65.0877 125.484L65.0982 125.488L65.2794 125.022ZM60.3864 125.022L60.5677 125.488L60.5751 125.485L60.3864 125.022ZM58.4124 126.303L58.0589 125.949L58.4124 126.303ZM57.1104 128.235L56.6517 128.036L56.65 128.04L57.1104 128.235ZM57.1104 133.065L56.6486 133.257L56.6518 133.264L57.1104 133.065ZM58.4124 135.018L58.0543 135.367L58.0634 135.376L58.4124 135.018ZM60.3864 136.299L60.1978 136.762L60.2052 136.765L60.3864 136.299ZM62.8434 137.626C61.7933 137.626 60.8253 137.453 59.935 137.113L59.5779 138.047C60.5916 138.435 61.6816 138.626 62.8434 138.626V137.626ZM59.9433 137.116C59.062 136.761 58.2977 136.27 57.6457 135.644L56.9532 136.366C57.7012 137.084 58.5749 137.643 59.5695 138.044L59.9433 137.116ZM57.653 135.651C57.0114 135.01 56.5077 134.271 56.1405 133.432L55.2244 133.832C55.6411 134.785 56.2154 135.628 56.9459 136.359L57.653 135.651ZM56.1442 133.44C55.7937 132.596 55.6154 131.668 55.6154 130.65H54.6154C54.6154 131.788 54.8152 132.848 55.2207 133.824L56.1442 133.44ZM55.6154 130.65C55.6154 129.631 55.7938 128.711 56.1431 127.883L55.2218 127.495C54.8151 128.459 54.6154 129.513 54.6154 130.65H55.6154ZM56.1416 127.887C56.5088 127.035 57.0113 126.298 57.6493 125.673L56.9495 124.959C56.2156 125.678 55.6401 126.523 55.2232 127.491L56.1416 127.887ZM57.6494 125.673C58.2997 125.036 59.0608 124.547 59.9373 124.207L59.5756 123.275C58.5761 123.663 57.6992 124.224 56.9495 124.959L57.6494 125.673ZM59.9433 124.205C60.8159 123.853 61.7806 123.674 62.8434 123.674V122.674C61.6663 122.674 60.573 122.873 59.5695 123.277L59.9433 124.205ZM62.8434 123.674C63.8914 123.674 64.8493 123.853 65.7225 124.205L66.0963 123.277C65.0936 122.873 64.0075 122.674 62.8434 122.674V123.674ZM65.7285 124.207C66.6065 124.548 67.3602 125.03 67.9956 125.652L68.6953 124.938C67.9587 124.216 67.0884 123.662 66.0903 123.275L65.7285 124.207ZM67.9992 125.656C68.6487 126.279 69.1487 127.012 69.5007 127.86L70.4242 127.476C70.0202 126.504 69.4422 125.655 68.6917 124.934L67.9992 125.656ZM69.5032 127.866C69.866 128.708 70.0504 129.634 70.0504 130.65H71.0504C71.0504 129.51 70.8428 128.448 70.4216 127.47L69.5032 127.866ZM70.0504 130.65C70.0504 131.666 69.866 132.592 69.5032 133.434L70.4216 133.83C70.8428 132.852 71.0504 131.79 71.0504 130.65H70.0504ZM69.5007 133.44C69.1487 134.288 68.6487 135.021 67.9992 135.644L68.6917 136.366C69.4422 135.645 70.0202 134.796 70.4242 133.824L69.5007 133.44ZM67.9956 135.648C67.3588 136.272 66.603 136.761 65.7225 137.116L66.0963 138.044C67.0918 137.643 67.96 137.082 68.6953 136.362L67.9956 135.648ZM65.7285 137.114C64.8537 137.453 63.8937 137.626 62.8434 137.626V138.626C64.0052 138.626 65.0892 138.435 66.0903 138.046L65.7285 137.114ZM62.8434 137.24C63.7819 137.24 64.6571 137.083 65.4636 136.764L65.0953 135.834C64.4177 136.103 63.669 136.24 62.8434 136.24V137.24ZM65.4681 136.762C66.2822 136.43 66.9902 135.967 67.586 135.372L66.8789 134.664C66.3827 135.161 65.7887 135.552 65.0908 135.836L65.4681 136.762ZM67.586 135.372C68.1914 134.766 68.6618 134.068 68.9949 133.281L68.074 132.891C67.7911 133.56 67.3934 134.15 66.8789 134.664L67.586 135.372ZM68.9962 133.278C69.3318 132.469 69.4964 131.591 69.4964 130.65H68.4964C68.4964 131.473 68.3531 132.219 68.0726 132.894L68.9962 133.278ZM69.4964 130.65C69.4964 129.709 69.3319 128.837 68.9949 128.04L68.074 128.43C68.353 129.089 68.4964 129.827 68.4964 130.65H69.4964ZM68.9962 128.043C68.663 127.241 68.1913 126.54 67.5815 125.945L66.8834 126.661C67.3936 127.158 67.7899 127.745 68.0726 128.427L68.9962 128.043ZM67.5904 125.954C66.9927 125.341 66.2807 124.875 65.4607 124.556L65.0982 125.488C65.7901 125.757 66.3802 126.145 66.8744 126.652L67.5904 125.954ZM65.4711 124.56C64.6627 124.225 63.7848 124.06 62.8434 124.06V125.06C63.6661 125.06 64.4122 125.203 65.0877 125.484L65.4711 124.56ZM62.8434 124.06C61.902 124.06 61.0184 124.225 60.1978 124.559L60.5751 125.485C61.2665 125.203 62.0209 125.06 62.8434 125.06V124.06ZM60.2052 124.556C59.3862 124.875 58.6691 125.339 58.0589 125.949L58.766 126.657C59.2758 126.147 59.8747 125.757 60.5677 125.488L60.2052 124.556ZM58.0589 125.949C57.4664 126.542 56.9976 127.239 56.6518 128.036L57.5691 128.434C57.8673 127.747 58.2665 127.156 58.766 126.657L58.0589 125.949ZM56.65 128.04C56.313 128.837 56.1484 129.709 56.1484 130.65H57.1484C57.1484 129.827 57.2919 129.089 57.5709 128.43L56.65 128.04ZM56.1484 130.65C56.1484 131.578 56.3134 132.449 56.6486 133.257L57.5722 132.873C57.2914 132.197 57.1484 131.458 57.1484 130.65H56.1484ZM56.6518 133.264C56.9971 134.06 57.4646 134.762 58.0544 135.367L58.7704 134.669C58.2683 134.154 57.8678 133.554 57.5691 132.866L56.6518 133.264ZM58.0634 135.376C58.6716 135.969 59.3847 136.431 60.1978 136.762L60.5751 135.836C59.8762 135.551 59.2733 135.159 58.7615 134.66L58.0634 135.376ZM60.2052 136.765C61.0238 137.083 61.9049 137.24 62.8434 137.24V136.24C62.018 136.24 61.261 136.103 60.5677 135.833L60.2052 136.765ZM84.5336 138H84.0336V138.5H84.5336V138ZM84.5336 123.3V122.8H84.0336V123.3H84.5336ZM86.0876 123.3H86.5876V122.8H86.0876V123.3ZM86.0876 136.656H85.5876V137.156H86.0876V136.656ZM94.3196 136.656H94.8196V136.156H94.3196V136.656ZM94.3196 138V138.5H94.8196V138H94.3196ZM85.0336 138V123.3H84.0336V138H85.0336ZM84.5336 123.8H86.0876V122.8H84.5336V123.8ZM85.5876 123.3V136.656H86.5876V123.3H85.5876ZM86.0876 137.156H94.3196V136.156H86.0876V137.156ZM93.8196 136.656V138H94.8196V136.656H93.8196ZM94.3196 137.5H84.5336V138.5H94.3196V137.5ZM108.786 129.873V129.373H108.286V129.873H108.786ZM116.556 129.873H117.056V129.373H116.556V129.873ZM116.556 131.196V131.696H117.056V131.196H116.556ZM108.786 131.196H108.286V131.696H108.786V131.196ZM108.954 136.656H108.454V137.156H108.954V136.656ZM117.795 136.656H118.295V136.156H117.795V136.656ZM117.795 138V138.5H118.295V138H117.795ZM107.4 138H106.9V138.5H107.4V138ZM107.4 123.3V122.8H106.9V123.3H107.4ZM117.48 123.3H117.98V122.8H117.48V123.3ZM117.48 124.644V125.144H117.98V124.644H117.48ZM108.954 124.644V124.144H108.454V124.644H108.954ZM108.786 130.373H116.556V129.373H108.786V130.373ZM116.056 129.873V131.196H117.056V129.873H116.056ZM116.556 130.696H108.786V131.696H116.556V130.696ZM109.286 131.196V129.873H108.286V131.196H109.286ZM108.954 137.156H117.795V136.156H108.954V137.156ZM117.295 136.656V138H118.295V136.656H117.295ZM117.795 137.5H107.4V138.5H117.795V137.5ZM107.9 138V123.3H106.9V138H107.9ZM107.4 123.8H117.48V122.8H107.4V123.8ZM116.98 123.3V124.644H117.98V123.3H116.98ZM117.48 124.144H108.954V125.144H117.48V124.144ZM108.454 124.644V136.656H109.454V124.644H108.454ZM131.948 138H131.448V138.5H131.948V138ZM131.948 123.3V122.8H131.448V123.3H131.948ZM133.229 123.3L133.62 122.989L133.47 122.8H133.229V123.3ZM143.372 136.068V136.568H144.407L143.763 135.757L143.372 136.068ZM142.7 136.068H142.2V136.568H142.7V136.068ZM142.7 123.3V122.8H142.2V123.3H142.7ZM144.233 123.3H144.733V122.8H144.233V123.3ZM144.233 138V138.5H144.733V138H144.233ZM142.952 138L142.56 138.311L142.71 138.5H142.952V138ZM132.83 125.232V124.732H131.795L132.438 125.543L132.83 125.232ZM133.502 125.232H134.002V124.732H133.502V125.232ZM133.502 138V138.5H134.002V138H133.502ZM132.448 138V123.3H131.448V138H132.448ZM131.948 123.8H133.229V122.8H131.948V123.8ZM132.837 123.611L142.98 136.379L143.763 135.757L133.62 122.989L132.837 123.611ZM143.372 135.568H142.7V136.568H143.372V135.568ZM143.2 136.068V123.3H142.2V136.068H143.2ZM142.7 123.8H144.233V122.8H142.7V123.8ZM143.733 123.3V138H144.733V123.3H143.733ZM144.233 137.5H142.952V138.5H144.233V137.5ZM143.344 137.689L133.222 124.921L132.438 125.543L142.56 138.311L143.344 137.689ZM132.83 125.732H133.502V124.732H132.83V125.732ZM133.002 125.232V138H134.002V125.232H133.002ZM133.502 137.5H131.948V138.5H133.502V137.5Z" fill="black"/>
<path d="M174.841 138.168C173.707 138.168 172.664 137.986 171.712 137.622C170.76 137.244 169.934 136.719 169.234 136.047C168.534 135.361 167.988 134.563 167.596 133.653C167.204 132.743 167.008 131.742 167.008 130.65C167.008 129.558 167.204 128.557 167.596 127.647C167.988 126.737 168.534 125.946 169.234 125.274C169.948 124.588 170.781 124.063 171.733 123.699C172.685 123.321 173.735 123.132 174.883 123.132C176.045 123.132 177.109 123.321 178.075 123.699C179.041 124.077 179.86 124.644 180.532 125.4L179.23 126.702C178.628 126.114 177.97 125.687 177.256 125.421C176.556 125.141 175.793 125.001 174.967 125.001C174.127 125.001 173.343 125.141 172.615 125.421C171.901 125.701 171.278 126.093 170.746 126.597C170.228 127.101 169.822 127.703 169.528 128.403C169.248 129.089 169.108 129.838 169.108 130.65C169.108 131.448 169.248 132.197 169.528 132.897C169.822 133.583 170.228 134.185 170.746 134.703C171.278 135.207 171.901 135.599 172.615 135.879C173.329 136.159 174.106 136.299 174.946 136.299C175.73 136.299 176.479 136.18 177.193 135.942C177.921 135.69 178.593 135.277 179.209 134.703L180.406 136.299C179.678 136.915 178.824 137.384 177.844 137.706C176.878 138.014 175.877 138.168 174.841 138.168ZM178.39 136.026V130.566H180.406V136.299L178.39 136.026ZM191.777 138V123.3H197.51C198.798 123.3 199.897 123.503 200.807 123.909C201.717 124.315 202.417 124.903 202.907 125.673C203.397 126.443 203.642 127.36 203.642 128.424C203.642 129.488 203.397 130.405 202.907 131.175C202.417 131.931 201.717 132.512 200.807 132.918C199.897 133.324 198.798 133.527 197.51 133.527H192.932L193.877 132.561V138H191.777ZM201.605 138L197.867 132.666H200.114L203.894 138H201.605ZM193.877 132.771L192.932 131.742H197.447C198.791 131.742 199.806 131.455 200.492 130.881C201.192 130.293 201.542 129.474 201.542 128.424C201.542 127.374 201.192 126.562 200.492 125.988C199.806 125.414 198.791 125.127 197.447 125.127H192.932L193.877 124.077V132.771ZM212.158 138L218.815 123.3H220.894L227.572 138H225.367L219.424 124.476H220.264L214.321 138H212.158ZM214.993 134.325L215.56 132.645H223.834L224.443 134.325H214.993ZM237.115 138V123.3H243.31C244.878 123.3 246.257 123.608 247.447 124.224C248.651 124.84 249.582 125.701 250.24 126.807C250.912 127.913 251.248 129.194 251.248 130.65C251.248 132.106 250.912 133.387 250.24 134.493C249.582 135.599 248.651 136.46 247.447 137.076C246.257 137.692 244.878 138 243.31 138H237.115ZM239.215 136.173H243.184C244.402 136.173 245.452 135.942 246.334 135.48C247.23 135.018 247.923 134.374 248.413 133.548C248.903 132.708 249.148 131.742 249.148 130.65C249.148 129.544 248.903 128.578 248.413 127.752C247.923 126.926 247.23 126.282 246.334 125.82C245.452 125.358 244.402 125.127 243.184 125.127H239.215V136.173ZM261.815 138V123.3H263.537L273.26 135.375H272.357V123.3H274.457V138H272.735L263.012 125.925H263.915V138H261.815ZM288.097 138.168C287.229 138.168 286.417 137.986 285.661 137.622C284.905 137.258 284.289 136.733 283.813 136.047L285.031 134.619C285.437 135.179 285.892 135.613 286.396 135.921C286.914 136.215 287.481 136.362 288.097 136.362C289.777 136.362 290.617 135.368 290.617 133.38V125.127H285.304V123.3H292.696V133.275C292.696 134.913 292.304 136.138 291.52 136.95C290.75 137.762 289.609 138.168 288.097 138.168ZM301.79 138L308.447 123.3H310.526L317.204 138H314.999L309.056 124.476H309.896L303.953 138H301.79ZM304.625 134.325L305.192 132.645H313.466L314.075 134.325H304.625Z" fill="#E2C799"/>
<defs>
<filter id="filter0_d_48_3" x="148.829" y="142.501" width="172.171" height="11.0001" filterUnits="userSpaceOnUse" color-interpolation-filters="sRGB">
<feFlood flood-opacity="0" result="BackgroundImageFix"/>
<feColorMatrix in="SourceAlpha" type="matrix" values="0 0 0 0 0 0 0 0 0 0 0 0 0 0 0 0 0 0 127 0" result="hardAlpha"/>
<feOffset dy="4"/>
<feGaussianBlur stdDeviation="2"/>
<feComposite in2="hardAlpha" operator="out"/>
<feColorMatrix type="matrix" values="0 0 0 0 0 0 0 0 0 0 0 0 0 0 0 0 0 0 0.1 0"/>
<feBlend mode="normal" in2="BackgroundImageFix" result="effect1_dropShadow_48_3"/>
<feBlend mode="normal" in="SourceGraphic" in2="effect1_dropShadow_48_3" result="shape"/>
</filter>
<filter id="filter1_d_48_3" x="0" y="142.5" width="160.67" height="11" filterUnits="userSpaceOnUse" color-interpolation-filters="sRGB">
<feFlood flood-opacity="0" result="BackgroundImageFix"/>
<feColorMatrix in="SourceAlpha" type="matrix" values="0 0 0 0 0 0 0 0 0 0 0 0 0 0 0 0 0 0 127 0" result="hardAlpha"/>
<feOffset dy="4"/>
<feGaussianBlur stdDeviation="2"/>
<feComposite in2="hardAlpha" operator="out"/>
<feColorMatrix type="matrix" values="0 0 0 0 0 0 0 0 0 0 0 0 0 0 0 0 0 0 0.15 0"/>
<feBlend mode="normal" in2="BackgroundImageFix" result="effect1_dropShadow_48_3"/>
<feBlend mode="normal" in="SourceGraphic" in2="effect1_dropShadow_48_3" result="shape"/>
</filter>
<filter id="filter2_d_48_3" x="40.5093" y="0" width="228.83" height="176.5" filterUnits="userSpaceOnUse" color-interpolation-filters="sRGB">
<feFlood flood-opacity="0" result="BackgroundImageFix"/>
<feColorMatrix in="SourceAlpha" type="matrix" values="0 0 0 0 0 0 0 0 0 0 0 0 0 0 0 0 0 0 127 0" result="hardAlpha"/>
<feOffset dy="4"/>
<feGaussianBlur stdDeviation="2"/>
<feComposite in2="hardAlpha" operator="out"/>
<feColorMatrix type="matrix" values="0 0 0 0 0 0 0 0 0 0 0 0 0 0 0 0 0 0 0.25 0"/>
<feBlend mode="normal" in2="BackgroundImageFix" result="effect1_dropShadow_48_3"/>
<feBlend mode="normal" in="SourceGraphic" in2="effect1_dropShadow_48_3" result="shape"/>
</filter>
</defs>
</svg>
