<svg width="322" height="177" viewBox="0 0 322 177" fill="none" xmlns="http://www.w3.org/2000/svg">
<g filter="url(#filter0_d_48_3)">
<path d="M153.305 144.001L318 144.001" stroke="#DABE9D" stroke-width="3"/>
</g>
<g filter="url(#filter1_d_48_3)">
<path d="M4 144H157.158" stroke="black" stroke-width="3"/>
</g>
<g filter="url(#filter2_d_48_3)">
<path d="M45.1701 69.5L96.6701 48.5L148.17 27.5M157.17 0V25M157.17 168.5V25M51.1701 67.0821V108.5H148.17M157.17 25L264.67 69.5M258.67 111V67.0163" stroke="black" stroke-width="3.5"/>
</g>
<rect x="43.5" y="67.147" width="112.361" height="6.0333" transform="rotate(-22.2967 43.5 67.147)" fill="#DABE9D"/>
<path d="M5.394 138V123.3H10.896C12.142 123.3 13.213 123.503 14.109 123.909C15.005 124.301 15.691 124.875 16.167 125.631C16.657 126.373 16.902 127.276 16.902 128.34C16.902 129.376 16.657 130.272 16.167 131.028C15.691 131.77 15.005 132.344 14.109 132.75C13.213 133.142 12.142 133.338 10.896 133.338H6.255L6.948 132.624V138H5.394ZM15.432 138L11.652 132.666H13.332L17.133 138H15.432ZM6.948 132.75L6.255 132.015H10.854C12.324 132.015 13.437 131.693 14.193 131.049C14.963 130.405 15.348 129.502 15.348 128.34C15.348 127.164 14.963 126.254 14.193 125.61C13.437 124.966 12.324 124.644 10.854 124.644H6.255L6.948 123.909V132.75ZM28.7178 138L35.4378 123.3H36.9708L43.6908 138H42.0528L35.8788 124.203H36.5088L30.3348 138H28.7178ZM31.3638 134.073L31.8258 132.813H40.3728L40.8348 134.073H31.3638ZM62.8434 138.126C61.7374 138.126 60.7084 137.944 59.7564 137.58C58.8184 137.202 57.9994 136.677 57.2994 136.005C56.6134 135.319 56.0744 134.528 55.6824 133.632C55.3044 132.722 55.1154 131.728 55.1154 130.65C55.1154 129.572 55.3044 128.585 55.6824 127.689C56.0744 126.779 56.6134 125.988 57.2994 125.316C57.9994 124.63 58.8184 124.105 59.7564 123.741C60.6944 123.363 61.7234 123.174 62.8434 123.174C63.9494 123.174 64.9714 123.363 65.9094 123.741C66.8474 124.105 67.6594 124.623 68.3454 125.295C69.0454 125.967 69.5844 126.758 69.9624 127.668C70.3544 128.578 70.5504 129.572 70.5504 130.65C70.5504 131.728 70.3544 132.722 69.9624 133.632C69.5844 134.542 69.0454 135.333 68.3454 136.005C67.6594 136.677 66.8474 137.202 65.9094 137.58C64.9714 137.944 63.9494 138.126 62.8434 138.126ZM62.8434 136.74C63.7254 136.74 64.5374 136.593 65.2794 136.299C66.0354 135.991 66.6864 135.564 67.2324 135.018C67.7924 134.458 68.2264 133.814 68.5344 133.086C68.8424 132.344 68.9964 131.532 68.9964 130.65C68.9964 129.768 68.8424 128.963 68.5344 128.235C68.2264 127.493 67.7924 126.849 67.2324 126.303C66.6864 125.743 66.0354 125.316 65.2794 125.022C64.5374 124.714 63.7254 124.56 62.8434 124.56C61.9614 124.56 61.1424 124.714 60.3864 125.022C59.6304 125.316 58.9724 125.743 58.4124 126.303C57.8664 126.849 57.4324 127.493 57.1104 128.235C56.8024 128.963 56.6484 129.768 56.6484 130.65C56.6484 131.518 56.8024 132.323 57.1104 133.065C57.4324 133.807 57.8664 134.458 58.4124 135.018C58.9724 135.564 59.6304 135.991 60.3864 136.299C61.1424 136.593 61.9614 136.74 62.8434 136.74ZM84.5336 138V123.3H86.0876V136.656H94.3196V138H84.5336ZM108.786 129.873H116.556V131.196H108.786V129.873ZM108.954 136.656H117.795V138H107.4V123.3H117.48V124.644H108.954V136.656ZM131.948 138V123.3H133.229L143.372 136.068H142.7V123.3H144.233V138H142.952L132.83 125.232H133.502V138H131.948Z" fill="black"/>
<path d="M5.394 138H4.894V138.5H5.394V138ZM5.394 123.3V122.8H4.894V123.3H5.394ZM14.109 123.909L13.9026 124.364L13.9086 124.367L14.109 123.909ZM16.167 125.631L15.7438 125.897L15.7498 125.907L16.167 125.631ZM16.167 131.028L15.7474 130.756L15.7462 130.758L16.167 131.028ZM14.109 132.75L14.3094 133.208L14.3154 133.205L14.109 132.75ZM6.255 133.338L5.89621 132.99L5.07292 133.838H6.255V133.338ZM6.948 132.624H7.448V131.391L6.58921 132.276L6.948 132.624ZM6.948 138V138.5H7.448V138H6.948ZM15.432 138L15.0241 138.289L15.1735 138.5H15.432V138ZM11.652 132.666V132.166H10.6848L11.2441 132.955L11.652 132.666ZM13.332 132.666L13.7392 132.376L13.5897 132.166H13.332V132.666ZM17.133 138V138.5H18.1033L17.5402 137.71L17.133 138ZM6.948 132.75L6.58421 133.093L7.448 134.009V132.75H6.948ZM6.255 132.015V131.515H5.09637L5.89121 132.358L6.255 132.015ZM14.193 131.049L13.8722 130.665L13.8688 130.668L14.193 131.049ZM14.193 125.61L13.8688 125.991L13.8722 125.994L14.193 125.61ZM6.255 124.644L5.89121 124.301L5.09637 125.144H6.255V124.644ZM6.948 123.909H7.448V122.65L6.58421 123.566L6.948 123.909ZM5.894 138V123.3H4.894V138H5.894ZM5.394 123.8H10.896V122.8H5.394V123.8ZM10.896 123.8C12.0892 123.8 13.0863 123.995 13.9026 124.364L14.3154 123.454C13.3397 123.011 12.1948 122.8 10.896 122.8V123.8ZM13.9086 124.367C14.7219 124.723 15.3263 125.234 15.7439 125.897L16.5901 125.365C16.0557 124.516 15.2881 123.879 14.3094 123.451L13.9086 124.367ZM15.7498 125.907C16.1759 126.552 16.402 127.354 16.402 128.34H17.402C17.402 127.198 17.1381 126.194 16.5842 125.355L15.7498 125.907ZM16.402 128.34C16.402 129.294 16.1774 130.093 15.7474 130.756L16.5866 131.3C17.1366 130.451 17.402 129.458 17.402 128.34H16.402ZM15.7462 130.758C15.3282 131.41 14.7213 131.924 13.9026 132.295L14.3154 133.205C15.2887 132.764 16.0538 132.13 16.5878 131.298L15.7462 130.758ZM13.9086 132.292C13.0906 132.65 12.0912 132.838 10.896 132.838V133.838C12.1928 133.838 13.3354 133.634 14.3094 133.208L13.9086 132.292ZM10.896 132.838H6.255V133.838H10.896V132.838ZM6.61379 133.686L7.30679 132.972L6.58921 132.276L5.89621 132.99L6.61379 133.686ZM6.448 132.624V138H7.448V132.624H6.448ZM6.948 137.5H5.394V138.5H6.948V137.5ZM15.8399 137.711L12.0599 132.377L11.2441 132.955L15.0241 138.289L15.8399 137.711ZM11.652 133.166H13.332V132.166H11.652V133.166ZM12.9248 132.956L16.7258 138.29L17.5402 137.71L13.7392 132.376L12.9248 132.956ZM17.133 137.5H15.432V138.5H17.133V137.5ZM7.31179 132.407L6.61879 131.672L5.89121 132.358L6.58421 133.093L7.31179 132.407ZM6.255 132.515H10.854V131.515H6.255V132.515ZM10.854 132.515C12.3874 132.515 13.636 132.18 14.5172 131.43L13.8688 130.668C13.238 131.206 12.2606 131.515 10.854 131.515V132.515ZM14.5138 131.433C15.4159 130.678 15.848 129.624 15.848 128.34H14.848C14.848 129.38 14.5101 130.132 13.8722 130.665L14.5138 131.433ZM15.848 128.34C15.848 127.044 15.4174 125.982 14.5138 125.226L13.8722 125.994C14.5086 126.526 14.848 127.284 14.848 128.34H15.848ZM14.5172 125.229C13.636 124.479 12.3874 124.144 10.854 124.144V125.144C12.2606 125.144 13.238 125.453 13.8688 125.991L14.5172 125.229ZM10.854 124.144H6.255V125.144H10.854V124.144ZM6.61879 124.987L7.31179 124.252L6.58421 123.566L5.89121 124.301L6.61879 124.987ZM6.448 123.909V132.75H7.448V123.909H6.448ZM28.7178 138L28.263 137.792L27.9394 138.5H28.7178V138ZM35.4378 123.3V122.8H35.1166L34.983 123.092L35.4378 123.3ZM36.9708 123.3L37.4255 123.092L37.292 122.8H36.9708V123.3ZM43.6908 138V138.5H44.4691L44.1455 137.792L43.6908 138ZM42.0528 138L41.5964 138.204L41.7287 138.5H42.0528V138ZM35.8788 124.203V123.703H35.1073L35.4224 124.407L35.8788 124.203ZM36.5088 124.203L36.9652 124.407L37.2803 123.703H36.5088V124.203ZM30.3348 138V138.5H30.6588L30.7912 138.204L30.3348 138ZM31.3638 134.073L30.8943 133.901L30.6479 134.573H31.3638V134.073ZM31.8258 132.813V132.313H31.4766L31.3563 132.641L31.8258 132.813ZM40.3728 132.813L40.8422 132.641L40.722 132.313H40.3728V132.813ZM40.8348 134.073V134.573H41.5507L41.3042 133.901L40.8348 134.073ZM29.1725 138.208L35.8925 123.508L34.983 123.092L28.263 137.792L29.1725 138.208ZM35.4378 123.8H36.9708V122.8H35.4378V123.8ZM36.516 123.508L43.236 138.208L44.1455 137.792L37.4255 123.092L36.516 123.508ZM43.6908 137.5H42.0528V138.5H43.6908V137.5ZM42.5092 137.796L36.3352 123.999L35.4224 124.407L41.5964 138.204L42.5092 137.796ZM35.8788 124.703H36.5088V123.703H35.8788V124.703ZM36.0524 123.999L29.8784 137.796L30.7912 138.204L36.9652 124.407L36.0524 123.999ZM30.3348 137.5H28.7178V138.5H30.3348V137.5ZM31.8332 134.245L32.2952 132.985L31.3563 132.641L30.8943 133.901L31.8332 134.245ZM31.8258 133.313H40.3728V132.313H31.8258V133.313ZM39.9033 132.985L40.3653 134.245L41.3042 133.901L40.8422 132.641L39.9033 132.985ZM40.8348 133.573H31.3638V134.573H40.8348V133.573ZM59.7564 137.58L59.5695 138.044L59.5779 138.047L59.7564 137.58ZM57.2994 136.005L56.9458 136.359L56.9532 136.366L57.2994 136.005ZM55.6824 133.632L55.2206 133.824L55.2244 133.832L55.6824 133.632ZM55.6824 127.689L55.2232 127.491L55.2218 127.495L55.6824 127.689ZM57.2994 125.316L57.6493 125.673L57.6494 125.673L57.2994 125.316ZM59.7564 123.741L59.9373 124.207L59.9433 124.205L59.7564 123.741ZM65.9094 123.741L65.7225 124.205L65.7285 124.207L65.9094 123.741ZM68.3454 125.295L67.9955 125.652L67.9992 125.656L68.3454 125.295ZM69.9624 127.668L69.5006 127.86L69.5032 127.866L69.9624 127.668ZM69.9624 133.632L69.5032 133.434L69.5007 133.44L69.9624 133.632ZM68.3454 136.005L67.9992 135.644L67.9956 135.648L68.3454 136.005ZM65.9094 137.58L66.0903 138.046L66.0963 138.044L65.9094 137.58ZM65.2794 136.299L65.4636 136.764L65.4681 136.762L65.2794 136.299ZM67.2324 135.018L66.8789 134.664L67.2324 135.018ZM68.5344 133.086L68.9949 133.281L68.9962 133.278L68.5344 133.086ZM68.5344 128.235L68.0726 128.427L68.074 128.43L68.5344 128.235ZM67.2324 126.303L66.8743 126.652L66.8834 126.661L67.2324 126.303ZM65.2794 125.022L65.0877 125.484L65.0982 125.488L65.2794 125.022ZM60.3864 125.022L60.5677 125.488L60.5751 125.485L60.3864 125.022ZM58.4124 126.303L58.0589 125.949L58.4124 126.303ZM57.1104 128.235L56.6517 128.036L56.65 128.04L57.1104 128.235ZM57.1104 133.065L56.6486 133.257L56.6518 133.264L57.1104 133.065ZM58.4124 135.018L58.0543 135.367L58.0634 135.376L58.4124 135.018ZM60.3864 136.299L60.1978 136.762L60.2052 136.765L60.3864 136.299ZM62.8434 137.626C61.7933 137.626 60.8253 137.453 59.935 137.113L59.5779 138.047C60.5916 138.435 61.6816 138.626 62.8434 138.626V137.626ZM59.9433 137.116C59.062 136.761 58.2977 136.27 57.6457 135.644L56.9532 136.366C57.7012 137.084 58.5749 137.643 59.5695 138.044L59.9433 137.116ZM57.653 135.651C57.0114 135.01 56.5077 134.271 56.1405 133.432L55.2244 133.832C55.6411 134.785 56.2154 135.628 56.9459 136.359L57.653 135.651ZM56.1442 133.44C55.7937 132.596 55.6154 131.668 55.6154 130.65H54.6154C54.6154 131.788 54.8152 132.848 55.2207 133.824L56.1442 133.44ZM55.6154 130.65C55.6154 129.631 55.7938 128.711 56.1431 127.883L55.2218 127.495C54.8151 128.459 54.6154 129.513 54.6154 130.65H55.6154ZM56.1416 127.887C56.5088 127.035 57.0113 126.298 57.6493 125.673L56.9495 124.959C56.2156 125.678 55.6401 126.523 55.2232 127.491L56.1416 127.887ZM57.6494 125.673C58.2997 125.036 59.0608 124.547 59.9373 124.207L59.5756 123.275C58.5761 123.663 57.6992 124.224 56.9495 124.959L57.6494 125.673ZM59.9433 124.205C60.8159 123.853 61.7806 123.674 62.8434 123.674V122.674C61.6663 122.674 60.573 122.873 59.5695 123.277L59.9433 124.205ZM62.8434 123.674C63.8914 123.674 64.8493 123.853 65.7225 124.205L66.0963 123.277C65.0936 122.873 64.0075 122.674 62.8434 122.674V123.674ZM65.7285 124.207C66.6065 124.548 67.3602 125.03 67.9956 125.652L68.6953 124.938C67.9587 124.216 67.0884 123.662 66.0903 123.275L65.7285 124.207ZM67.9992 125.656C68.6487 126.279 69.1487 127.012 69.5007 127.86L70.4242 127.476C70.0202 126.504 69.4422 125.655 68.6917 124.934L67.9992 125.656ZM69.5032 127.866C69.866 128.708 70.0504 129.634 70.0504 130.65H71.0504C71.0504 129.51 70.8428 128.448 70.4216 127.47L69.5032 127.866ZM70.0504 130.65C70.0504 131.666 69.866 132.592 69.5032 133.434L70.4216 133.83C70.8428 132.852 71.0504 131.79 71.0504 130.65H70.0504ZM69.5007 133.44C69.1487 134.288 68.6487 135.021 67.9992 135.644L68.6917 136.366C69.4422 135.645 70.0202 134.796 70.4242 133.824L69.5007 133.44ZM67.9956 135.648C67.3588 136.272 66.603 136.761 65.7225 137.116L66.0963 138.044C67.0918 137.643 67.96 137.082 68.6953 136.362L67.9956 135.648ZM65.7285 137.114C64.8537 137.453 63.8937 137.626 62.8434 137.626V138.626C64.0052 138.626 65.0892 138.435 66.0903 138.046L65.7285 137.114ZM62.8434 137.24C63.7819 137.24 64.6571 137.083 65.4636 136.764L65.0953 135.834C64.4177 136.103 63.669 136.24 62.8434 136.24V137.24ZM65.4681 136.762C66.2822 136.43 66.9902 135.967 67.586 135.372L66.8789 134.664C66.3827 135.161 65.7887 135.552 65.0908 135.836L65.4681 136.762ZM67.586 135.372C68.1914 134.766 68.6618 134.068 68.9949 133.281L68.074 132.891C67.7911 133.56 67.3934 134.15 66.8789 134.664L67.586 135.372ZM68.9962 133.278C69.3318 132.469 69.4964 131.591 69.4964 130.65H68.4964C68.4964 131.473 68.3531 132.219 68.0726 132.894L68.9962 133.278ZM69.4964 130.65C69.4964 129.709 69.3319 128.837 68.9949 128.04L68.074 128.43C68.353 129.089 68.4964 129.827 68.4964 130.65H69.4964ZM68.9962 128.043C68.663 127.241 68.1913 126.54 67.5815 125.945L66.8834 126.661C67.3936 127.158 67.7899 127.745 68.0726 128.427L68.9962 128.043ZM67.5904 125.954C66.9927 125.341 66.2807 124.875 65.4607 124.556L65.0982 125.488C65.7901 125.757 66.3802 126.145 66.8744 126.652L67.5904 125.954ZM65.4711 124.56C64.6627 124.225 63.7848 124.06 62.8434 124.06V125.06C63.6661 125.06 64.4122 125.203 65.0877 125.484L65.4711 124.56ZM62.8434 124.06C61.902 124.06 61.0184 124.225 60.1978 124.559L60.5751 125.485C61.2665 125.203 62.0209 125.06 62.8434 125.06V124.06ZM60.2052 124.556C59.3862 124.875 58.6691 125.339 58.0589 125.949L58.766 126.657C59.2758 126.147 59.8747 125.757 60.5677 125.488L60.2052 124.556ZM58.0589 125.949C57.4664 126.542 56.9976 127.239 56.6518 128.036L57.5691 128.434C57.8673 127.747 58.2665 127.156 58.766 126.657L58.0589 125.949ZM56.65 128.04C56.313 128.837 56.1484 129.709 56.1484 130.65H57.1484C57.1484 129.827 57.2919 129.089 57.5709 128.43L56.65 128.04ZM56.1484 130.65C56.1484 131.578 56.3134 132.449 56.6486 133.257L57.5722 132.873C57.2914 132.197 57.1484 131.458 57.1484 130.65H56.1484ZM56.6518 133.264C56.9971 134.06 57.4646 134.762 58.0544 135.367L58.7704 134.669C58.2683 134.154 57.8678 133.554 57.5691 132.866L56.6518 133.264ZM58.0634 135.376C58.6716 135.969 59.3847 136.431 60.1978 136.762L60.5751 135.836C59.8762 135.551 59.2733 135.159 58.7615 134.66L58.0634 135.376ZM60.2052 136.765C61.0238 137.083 61.9049 137.24 62.8434 137.24V136.24C62.018 136.24 61.261 136.103 60.5677 135.833L60.2052 136.765ZM84.5336 138H84.0336V138.5H84.5336V138ZM84.5336 123.3V122.8H84.0336V123.3H84.5336ZM86.0876 123.3H86.5876V122.8H86.0876V123.3ZM86.0876 136.656H85.5876V137.156H86.0876V136.656ZM94.3196 136.656H94.8196V136.156H94.3196V136.656ZM94.3196 138V138.5H94.8196V138H94.3196ZM85.0336 138V123.3H84.0336V138H85.0336ZM84.5336 123.8H86.0876V122.8H84.5336V123.8ZM85.5876 123.3V136.656H86.5876V123.3H85.5876ZM86.0876 137.156H94.3196V136.156H86.0876V137.156ZM93.8196 136.656V138H94.8196V136.656H93.8196ZM94.3196 137.5H84.5336V138.5H94.3196V137.5ZM108.786 129.873V129.373H108.286V129.873H108.786ZM116.556 129.873H117.056V129.373H116.556V129.873ZM116.556 131.196V131.696H117.056V131.196H116.556ZM108.786 131.196H108.286V131.696H108.786V131.196ZM108.954 136.656H108.454V137.156H108.954V136.656ZM117.795 136.656H118.295V136.156H117.795V136.656ZM117.795 138V138.5H118.295V138H117.795ZM107.4 138H106.9V138.5H107.4V138ZM107.4 123.3V122.8H106.9V123.3H107.4ZM117.48 123.3H117.98V122.8H117.48V123.3ZM117.48 124.644V125.144H117.98V124.644H117.48ZM108.954 124.644V124.144H108.454V124.644H108.954ZM108.786 130.373H116.556V129.373H108.786V130.373ZM116.056 129.873V131.196H117.056V129.873H116.056ZM116.556 130.696H108.786V131.696H116.556V130.696ZM109.286 131.196V129.873H108.286V131.196H109.286ZM108.954 137.156H117.795V136.156H108.954V137.156ZM117.295 136.656V138H118.295V136.656H117.295ZM117.795 137.5H107.4V138.5H117.795V137.5ZM107.9 138V123.3H106.9V138H107.9ZM107.4 123.8H117.48V122.8H107.4V123.8ZM116.98 123.3V124.644H117.98V123.3H116.98ZM117.48 124.144H108.954V125.144H117.48V124.144ZM108.454 124.644V136.656H109.454V124.644H108.454ZM131.948 138H131.448V138.5H131.948V138ZM131.948 123.3V122.8H131.448V123.3H131.948ZM133.229 123.3L133.62 122.989L133.47 122.8H133.229V123.3ZM143.372 136.068V136.568H144.407L143.763 135.757L143.372 136.068ZM142.7 136.068H142.2V136.568H142.7V136.068ZM142.7 123.3V122.8H142.2V123.3H142.7ZM144.233 123.3H144.733V122.8H144.233V123.3ZM144.233 138V138.5H144.733V138H144.233ZM142.952 138L142.56 138.311L142.71 138.5H142.952V138ZM132.83 125.232V124.732H131.795L132.438 125.543L132.83 125.232ZM133.502 125.232H134.002V124.732H133.502V125.232ZM133.502 138V138.5H134.002V138H133.502ZM132.448 138V123.3H131.448V138H132.448ZM131.948 123.8H133.229V122.8H131.948V123.8ZM132.837 123.611L142.98 136.379L143.763 135.757L133.62 122.989L132.837 123.611ZM143.372 135.568H142.7V136.568H143.372V135.568ZM143.2 136.068V123.3H142.2V136.068H143.2ZM142.7 123.8H144.233V122.8H142.7V123.8ZM143.733 123.3V138H144.733V123.3H143.733ZM144.233 137.5H142.952V138.5H144.233V137.5ZM143.344 137.689L133.222 124.921L132.438 125.543L142.56 138.311L143.344 137.689ZM132.83 125.732H133.502V124.732H132.83V125.732ZM133.002 125.232V138H134.002V125.232H133.002ZM133.502 137.5H131.948V138.5H133.502V137.5Z" fill="black"/>
<path d="M173.841 138.21C172.693 138.21 171.636 138.028 170.67 137.664C169.718 137.286 168.885 136.761 168.171 136.089C167.457 135.403 166.904 134.598 166.512 133.674C166.12 132.75 165.924 131.742 165.924 130.65C165.924 129.558 166.12 128.55 166.512 127.626C166.904 126.702 167.457 125.904 168.171 125.232C168.899 124.546 169.746 124.021 170.712 123.657C171.678 123.279 172.735 123.09 173.883 123.09C175.129 123.09 176.249 123.293 177.243 123.699C178.251 124.105 179.098 124.7 179.784 125.484L178.062 127.164C177.488 126.59 176.865 126.17 176.193 125.904C175.535 125.624 174.807 125.484 174.009 125.484C173.239 125.484 172.525 125.61 171.867 125.862C171.209 126.114 170.642 126.471 170.166 126.933C169.69 127.395 169.319 127.941 169.053 128.571C168.801 129.201 168.675 129.894 168.675 130.65C168.675 131.392 168.801 132.078 169.053 132.708C169.319 133.338 169.69 133.891 170.166 134.367C170.642 134.829 171.202 135.186 171.846 135.438C172.49 135.69 173.204 135.816 173.988 135.816C174.716 135.816 175.416 135.704 176.088 135.48C176.774 135.242 177.425 134.85 178.041 134.304L179.595 136.341C178.825 136.957 177.929 137.426 176.907 137.748C175.899 138.056 174.877 138.21 173.841 138.21ZM177.012 135.984V130.482H179.595V136.341L177.012 135.984ZM190.546 138V123.3H196.594C197.896 123.3 199.009 123.51 199.933 123.93C200.871 124.35 201.592 124.952 202.096 125.736C202.6 126.52 202.852 127.451 202.852 128.529C202.852 129.607 202.6 130.538 202.096 131.322C201.592 132.092 200.871 132.687 199.933 133.107C199.009 133.513 197.896 133.716 196.594 133.716H192.058L193.276 132.477V138H190.546ZM200.164 138L196.447 132.666H199.366L203.104 138H200.164ZM193.276 132.771L192.058 131.469H196.468C197.672 131.469 198.575 131.21 199.177 130.692C199.793 130.174 200.101 129.453 200.101 128.529C200.101 127.591 199.793 126.87 199.177 126.366C198.575 125.862 197.672 125.61 196.468 125.61H192.058L193.276 124.266V132.771ZM211.177 138L217.792 123.3H220.48L227.116 138H224.26L218.569 124.749H219.661L213.991 138H211.177ZM214.222 134.598L214.957 132.456H222.895L223.63 134.598H214.222ZM236.336 138V123.3H242.762C244.358 123.3 245.758 123.608 246.962 124.224C248.166 124.84 249.104 125.694 249.776 126.786C250.448 127.878 250.784 129.166 250.784 130.65C250.784 132.12 250.448 133.408 249.776 134.514C249.104 135.606 248.166 136.46 246.962 137.076C245.758 137.692 244.358 138 242.762 138H236.336ZM239.066 135.69H242.636C243.742 135.69 244.694 135.48 245.492 135.06C246.304 134.64 246.927 134.052 247.361 133.296C247.809 132.54 248.033 131.658 248.033 130.65C248.033 129.628 247.809 128.746 247.361 128.004C246.927 127.248 246.304 126.66 245.492 126.24C244.694 125.82 243.742 125.61 242.636 125.61H239.066V135.69ZM261.035 138V123.3H263.282L272.501 134.619H271.388V123.3H274.097V138H271.85L262.631 126.681H263.744V138H261.035ZM287.675 138.21C286.737 138.21 285.869 138.028 285.071 137.664C284.287 137.3 283.643 136.775 283.139 136.089L284.693 134.22C285.099 134.78 285.54 135.2 286.016 135.48C286.506 135.76 287.038 135.9 287.612 135.9C289.138 135.9 289.901 134.997 289.901 133.191V125.589H284.672V123.3H292.631V133.044C292.631 134.78 292.204 136.075 291.35 136.929C290.51 137.783 289.285 138.21 287.675 138.21ZM301.424 138L308.039 123.3H310.727L317.363 138H314.507L308.816 124.749H309.908L304.238 138H301.424ZM304.469 134.598L305.204 132.456H313.142L313.877 134.598H304.469Z" fill="black"/>
<defs>
<filter id="filter0_d_48_3" x="149.305" y="142.501" width="172.695" height="11.0001" filterUnits="userSpaceOnUse" color-interpolation-filters="sRGB">
<feFlood flood-opacity="0" result="BackgroundImageFix"/>
<feColorMatrix in="SourceAlpha" type="matrix" values="0 0 0 0 0 0 0 0 0 0 0 0 0 0 0 0 0 0 127 0" result="hardAlpha"/>
<feOffset dy="4"/>
<feGaussianBlur stdDeviation="2"/>
<feComposite in2="hardAlpha" operator="out"/>
<feColorMatrix type="matrix" values="0 0 0 0 0 0 0 0 0 0 0 0 0 0 0 0 0 0 0.1 0"/>
<feBlend mode="normal" in2="BackgroundImageFix" result="effect1_dropShadow_48_3"/>
<feBlend mode="normal" in="SourceGraphic" in2="effect1_dropShadow_48_3" result="shape"/>
</filter>
<filter id="filter1_d_48_3" x="0" y="142.5" width="161.158" height="11" filterUnits="userSpaceOnUse" color-interpolation-filters="sRGB">
<feFlood flood-opacity="0" result="BackgroundImageFix"/>
<feColorMatrix in="SourceAlpha" type="matrix" values="0 0 0 0 0 0 0 0 0 0 0 0 0 0 0 0 0 0 127 0" result="hardAlpha"/>
<feOffset dy="4"/>
<feGaussianBlur stdDeviation="2"/>
<feComposite in2="hardAlpha" operator="out"/>
<feColorMatrix type="matrix" values="0 0 0 0 0 0 0 0 0 0 0 0 0 0 0 0 0 0 0.15 0"/>
<feBlend mode="normal" in2="BackgroundImageFix" result="effect1_dropShadow_48_3"/>
<feBlend mode="normal" in="SourceGraphic" in2="effect1_dropShadow_48_3" result="shape"/>
</filter>
<filter id="filter2_d_48_3" x="40.5093" y="0" width="228.83" height="176.5" filterUnits="userSpaceOnUse" color-interpolation-filters="sRGB">
<feFlood flood-opacity="0" result="BackgroundImageFix"/>
<feColorMatrix in="SourceAlpha" type="matrix" values="0 0 0 0 0 0 0 0 0 0 0 0 0 0 0 0 0 0 127 0" result="hardAlpha"/>
<feOffset dy="4"/>
<feGaussianBlur stdDeviation="2"/>
<feComposite in2="hardAlpha" operator="out"/>
<feColorMatrix type="matrix" values="0 0 0 0 0 0 0 0 0 0 0 0 0 0 0 0 0 0 0.25 0"/>
<feBlend mode="normal" in2="BackgroundImageFix" result="effect1_dropShadow_48_3"/>
<feBlend mode="normal" in="SourceGraphic" in2="effect1_dropShadow_48_3" result="shape"/>
</filter>
</defs>
</svg>
