<!DOCTYPE svg PUBLIC "-//W3C//DTD SVG 1.1//EN" "http://www.w3.org/Graphics/SVG/1.1/DTD/svg11.dtd">
<!-- Uploaded to: SVG Repo, www.svgrepo.com, Transformed by: SVG Repo Mixer Tools -->
<svg fill="#DABE9D" height="800px" width="800px" version="1.1" id="Capa_1" xmlns="http://www.w3.org/2000/svg" xmlns:xlink="http://www.w3.org/1999/xlink" viewBox="0 0 371.435 371.435" xml:space="preserve">
<g id="SVGRepo_bgCarrier" stroke-width="0"/>
<g id="SVGRepo_tracerCarrier" stroke-linecap="round" stroke-linejoin="round"/>
<g id="SVGRepo_iconCarrier"> <path d="M369.717,279.514c0-9.021-7.312-16.334-16.332-16.334h-8.375c-0.114-5.848-2.9-11.033-7.186-14.406 c3.1-0.112,5.581-2.652,5.581-5.782c0-2.395-1.454-4.449-3.524-5.332c13.278-6.59,13.656-24.128,7.45-43.182l-12.175-39.709h2.457 c3.198,0,5.792-2.594,5.792-5.791c0-2.754-1.924-5.055-4.5-5.643c4.438-3.66,7.268-9.201,7.268-15.402 c0-7.259-3.888-13.594-9.683-17.086h16.895c9.021,0,16.332-7.313,16.332-16.334c0-9.02-7.312-16.332-16.332-16.332H18.051 c-9.02,0-16.333,7.313-16.333,16.332c0,9.021,7.313,16.334,16.333,16.334h16.895c-5.795,3.492-9.683,9.827-9.683,17.086 c0,6.201,2.829,11.742,7.268,15.402c-2.576,0.588-4.498,2.889-4.498,5.643c0,3.197,2.592,5.791,5.791,5.791h2.455l-12.174,39.709 c-6.207,19.057-5.828,36.593,7.451,43.183c-2.072,0.883-3.523,2.936-3.523,5.331c0,3.13,2.479,5.67,5.579,5.782 c-4.285,3.373-7.071,8.559-7.186,14.406h-8.375c-9.02,0-16.333,7.313-16.333,16.334L0,293.255h371.435L369.717,279.514z M101.556,237.66c-2.072,0.883-3.523,2.936-3.523,5.331c0,3.13,2.478,5.67,5.579,5.782c-4.285,3.373-7.071,8.559-7.186,14.406H64.01 c-0.114-5.848-2.9-11.033-7.185-14.406c3.1-0.112,5.581-2.652,5.581-5.782c0-2.395-1.453-4.449-3.524-5.332 c13.278-6.59,13.657-24.128,7.45-43.182l-12.175-39.709h2.457c3.198,0,5.792-2.594,5.792-5.791c0-2.754-1.924-5.055-4.5-5.643 c4.438-3.66,7.268-9.201,7.268-15.402c0-7.259-3.888-13.594-9.683-17.086h49.455c-5.795,3.492-9.683,9.827-9.683,17.086 c0,6.201,2.829,11.742,7.267,15.402c-2.576,0.588-4.498,2.889-4.498,5.643c0,3.197,2.592,5.791,5.791,5.791h2.455l-12.174,39.709 C87.897,213.534,88.276,231.07,101.556,237.66z M171.556,237.66c-2.072,0.883-3.523,2.936-3.523,5.331 c0,3.13,2.479,5.67,5.579,5.782c-4.285,3.373-7.071,8.559-7.186,14.406H134.01c-0.114-5.848-2.9-11.033-7.186-14.406 c3.1-0.112,5.581-2.652,5.581-5.782c0-2.395-1.453-4.449-3.524-5.332c13.278-6.59,13.657-24.128,7.45-43.182l-12.175-39.709h2.457 c3.198,0,5.792-2.594,5.792-5.791c0-2.754-1.924-5.055-4.5-5.643c4.439-3.66,7.268-9.201,7.268-15.402 c0-7.259-3.888-13.594-9.683-17.086h49.455c-5.795,3.492-9.683,9.827-9.683,17.086c0,6.201,2.829,11.742,7.268,15.402 c-2.576,0.588-4.498,2.889-4.498,5.643c0,3.197,2.592,5.791,5.791,5.791h2.455l-12.174,39.709 C157.897,213.534,158.276,231.07,171.556,237.66z M241.556,237.66c-2.072,0.883-3.523,2.936-3.523,5.331 c0,3.13,2.479,5.67,5.579,5.782c-4.285,3.373-7.071,8.559-7.186,14.406H204.01c-0.114-5.848-2.9-11.033-7.186-14.406 c3.1-0.112,5.581-2.652,5.581-5.782c0-2.395-1.453-4.449-3.524-5.332c13.278-6.59,13.657-24.128,7.45-43.182l-12.175-39.709h2.457 c3.198,0,5.792-2.594,5.792-5.791c0-2.754-1.924-5.055-4.5-5.643c4.439-3.66,7.268-9.201,7.268-15.402 c0-7.259-3.888-13.594-9.683-17.086h49.455c-5.795,3.492-9.683,9.827-9.683,17.086c0,6.201,2.829,11.742,7.268,15.402 c-2.576,0.588-4.498,2.889-4.498,5.643c0,3.197,2.592,5.791,5.791,5.791h2.455l-12.174,39.709 C227.897,213.534,228.276,231.07,241.556,237.66z M312.556,237.66c-2.072,0.883-3.523,2.936-3.523,5.331 c0,3.13,2.479,5.67,5.579,5.782c-4.285,3.373-7.071,8.559-7.186,14.406H274.01c-0.114-5.848-2.9-11.033-7.186-14.406 c3.1-0.112,5.581-2.652,5.581-5.782c0-2.395-1.454-4.449-3.524-5.332c13.278-6.59,13.656-24.128,7.45-43.182l-12.175-39.709h2.457 c3.198,0,5.792-2.594,5.792-5.791c0-2.754-1.924-5.055-4.5-5.643c4.438-3.66,7.268-9.201,7.268-15.402 c0-7.259-3.888-13.594-9.683-17.086h50.455c-5.795,3.492-9.683,9.827-9.683,17.086c0,6.201,2.829,11.742,7.268,15.402 c-2.576,0.588-4.498,2.889-4.498,5.643c0,3.197,2.592,5.791,5.791,5.791h2.455l-12.175,39.709 C298.897,213.534,299.276,231.07,312.556,237.66z"/> </g>
</svg>