<!DOCTYPE svg PUBLIC "-//W3C//DTD SVG 1.1//EN" "http://www.w3.org/Graphics/SVG/1.1/DTD/svg11.dtd">
<!-- Uploaded to: SVG Repo, www.svgrepo.com, Transformed by: SVG Repo Mixer Tools -->
<svg fill="#DABE9D" height="800px" width="800px" version="1.1" id="Layer_1" xmlns="http://www.w3.org/2000/svg" xmlns:xlink="http://www.w3.org/1999/xlink" viewBox="0 0 512 512" xml:space="preserve">
<g id="SVGRepo_bgCarrier" stroke-width="0"/>
<g id="SVGRepo_tracerCarrier" stroke-linecap="round" stroke-linejoin="round"/>
<g id="SVGRepo_iconCarrier"> <g> <g> <path d="M489.739,0H272.696v411.826h233.739V16.696C506.435,7.473,498.962,0,489.739,0z M339.478,228.174 c0,9.223-7.473,16.696-16.696,16.696c-9.223,0-16.696-7.473-16.696-16.696v-55.652c0-9.223,7.473-16.696,16.696-16.696 c9.223,0,16.696,7.473,16.696,16.696V228.174z"/> </g> </g> <g> <g> <path d="M5.565,445.217v50.087c0,9.223,7.473,16.696,16.696,16.696h467.478c9.223,0,16.696-7.473,16.696-16.696v-50.087H5.565z"/> </g> </g> <g> <g> <path d="M22.261,0C13.038,0,5.565,7.473,5.565,16.696v395.13h233.739V0H22.261z M205.913,228.174 c0,9.223-7.473,16.696-16.696,16.696s-16.696-7.473-16.696-16.696v-55.652c0-9.223,7.473-16.696,16.696-16.696 s16.696,7.473,16.696,16.696V228.174z"/> </g> </g> </g>
</svg>