<!DOCTYPE svg PUBLIC "-//W3C//DTD SVG 1.1//EN" "http://www.w3.org/Graphics/SVG/1.1/DTD/svg11.dtd">
<!-- Uploaded to: SVG Repo, www.svgrepo.com, Transformed by: SVG Repo Mixer Tools -->
<svg fill="#DABE9D" height="800px" width="800px" version="1.1" id="Layer_1" xmlns="http://www.w3.org/2000/svg" xmlns:xlink="http://www.w3.org/1999/xlink" viewBox="0 0 374.418 374.418" xml:space="preserve">
<g id="SVGRepo_bgCarrier" stroke-width="0"/>
<g id="SVGRepo_tracerCarrier" stroke-linecap="round" stroke-linejoin="round"/>
<g id="SVGRepo_iconCarrier"> <g> <g> <path d="M359.418,38.638c-8.284,0-15,6.716-15,15v6.889H30v-6.889c0-8.284-6.716-15-15-15s-15,6.716-15,15V320.78 c0,8.284,6.716,15,15,15s15-6.716,15-15v-41.69h314.418v41.69c0,8.284,6.716,15,15,15s15-6.716,15-15V53.638 C374.418,45.354,367.702,38.638,359.418,38.638z M70.199,230.78H30V90.526h40.199C70.199,90.526,70.199,230.78,70.199,230.78z M138.206,230.78h-38.007V90.526h38.007V230.78z M206.212,230.78h-38.006V90.526h38.006V230.78z M274.219,230.78h-38.007V90.526 h38.007V230.78z M344.418,230.78h-40.199V90.526h40.199V230.78z"/> </g> </g> </g>
</svg>