<!DOCTYPE svg PUBLIC "-//W3C//DTD SVG 1.1//EN" "http://www.w3.org/Graphics/SVG/1.1/DTD/svg11.dtd">
<!-- Uploaded to: SVG Repo, www.svgrepo.com, Transformed by: SVG Repo Mixer Tools -->
<svg fill="#DABE9D" height="800px" width="800px" version="1.1" id="Layer_1" xmlns="http://www.w3.org/2000/svg" xmlns:xlink="http://www.w3.org/1999/xlink" viewBox="0 0 455 455" xml:space="preserve">
<g id="SVGRepo_bgCarrier" stroke-width="0"/>
<g id="SVGRepo_tracerCarrier" stroke-linecap="round" stroke-linejoin="round"/>
<g id="SVGRepo_iconCarrier"> <g> <path d="M20,0v120h415V0H20z M150.833,74.5H60.5v-30h90.333V74.5z M336,75h-40V45h40V75z M396,75h-40V45h40V75z"/> <path d="M228,384.5c45.491,0,82.5-37.009,82.5-82.5s-37.009-82.5-82.5-82.5s-82.5,37.009-82.5,82.5S182.509,384.5,228,384.5z"/> <path d="M20,455h415V150H20V455z M228,189.5c62.033,0,112.5,50.467,112.5,112.5S290.033,414.5,228,414.5S115.5,364.033,115.5,302 S165.967,189.5,228,189.5z"/> </g> </g>
</svg>