<!DOCTYPE svg PUBLIC "-//W3C//DTD SVG 1.1//EN" "http://www.w3.org/Graphics/SVG/1.1/DTD/svg11.dtd">
<!-- Uploaded to: SVG Repo, www.svgrepo.com, Transformed by: SVG Repo Mixer Tools -->
<svg fill="#dabe9d" height="800px" width="800px" version="1.1" id="Layer_1" xmlns="http://www.w3.org/2000/svg" xmlns:xlink="http://www.w3.org/1999/xlink" viewBox="0 0 512 512" xml:space="preserve">
<g id="SVGRepo_bgCarrier" stroke-width="0"/>
<g id="SVGRepo_tracerCarrier" stroke-linecap="round" stroke-linejoin="round"/>
<g id="SVGRepo_iconCarrier"> <g> <g> <path d="M456.348,33.391h-50.087v100.174h50.087c9.223,0,16.696-7.473,16.696-16.696V50.087 C473.043,40.864,465.57,33.391,456.348,33.391z"/> </g> </g> <g> <g> <path d="M55.652,0C28.033,0,5.565,22.468,5.565,50.087v378.435c0,27.619,22.468,50.087,50.087,50.087 c27.619,0,50.087-22.468,50.087-50.087V50.087C105.739,22.468,83.271,0,55.652,0z"/> </g> </g> <g> <g> <path d="M189.217,0c-27.619,0-50.087,22.468-50.087,50.087v378.435c0,27.619,22.468,50.087,50.087,50.087 c27.619,0,50.087-22.468,50.087-50.087V50.087C239.304,22.468,216.836,0,189.217,0z"/> </g> </g> <g> <g> <path d="M322.783,0c-27.619,0-50.087,22.468-50.087,50.087v378.435c0,27.619,22.468,50.087,50.087,50.087 c27.619,0,50.087-22.468,50.087-50.087V50.087C372.87,22.468,350.402,0,322.783,0z"/> </g> </g> <g> <g> <path d="M456.348,345.043h-50.087v100.174v16.696c0,27.619,22.468,50.087,50.087,50.087c27.619,0,50.087-22.468,50.087-50.087 V395.13C506.435,367.511,483.967,345.043,456.348,345.043z"/> </g> </g> </g>
</svg>